Love for All and Sharing is the first step to solving all the problems of humanity.

Website I want to share. 
               
   http://www.scenetime.com
 
 
  Credit to EVERYONE for sharing and seeding back
 especially to SCENETIME.COM where i get all my 
 downloads.


 support www.scenetime.com to grow faster.

                             
                                                            
                                                   

.                 ..................................NFO:....................................
                                                     
                                                   
                                                         
                                                          
                                                           
                                                          
                                                          
                                                          
                                                           
                                                         
                                                          
                                                        
                                                      
                                     
                                                 
                                                   
                                             
                                              
                                                     
                                                      
                                                      
                                                      
                                                    
                                                     
                                                   
                                                     
                                                     
                                                      
                                                     
                                                      
                                                    
                 ARTiCHOKE                        
                                                
                      
                                                        
                                                      
                                                      
                                               
                                          
                                                   
                                            
                                                    
                                                       
                                                        
                                                      
                                                
                                                        
                                                 
                                              
                                                  
                                                
                                                  
                                        

      
                                
      SPRiNTER proudly presents...     
                                
      
 
 Stragglers.2004.DVDRip.XviD-SPRiNTER  http://www.imdb.com/title/tt0419167/
 Subtitles: N/A

 Date: 2010.08

 Director: Dave R. Watkins
 Plot: When a supernatural phenomenon causes a group of people in the North Georgia Mountains to mysteriously disappear, a small team of research scientists rush to the area to begin a dangerous investigation which leads them into a spiraling psychological battle for survival.
 Genre: Horror | thriller

 Cast

	Dave R. Watkins	 ...	Mark Locke
	Michael D. Friedman	 ...	Booth
	Amy Holt	 ...	Dr. Elaine Krauss
	Chris Burns	 ...	Drake Crispen
	Cheri Christian	 ...	Valerie
	Joel Hunter	 ...	Dr. Harold Baines
	Spencer Stephens	 ...	Kevin (as Spencer G. Stephens)
	Ron McLellen	 ...	Griffin
	Nate Hill	 ...	Dr. Gabriel Sheinberg
	Bernadette Fuqua	 ...	Michelle
	Katy Sulhoff	 ...	Heather
	Eric Bomba-Ire	 ...	Dr. Eric Bomba-Ire
	Toby Sells	 ...	CJ
	Matt Cornwell	 ...	Hiker
	Candace Mabry	 ...	Hiker

      
                 
      Release notes     
                 
      

 Enjoy!


      
           
     Greetings    
           
      


NTX aAF FiCO HNR CiNEFiLE AEN HUMANiSM


      
           
      Details     
           
      

Format                           : AVI
Format/Info                      : Audio Video Interleave
File size                        : 702 MiB
Duration                         : 1h 26mn
Overall bit rate                 : 1 138 Kbps
Writing application              : VirtualDubMod 1.5.10.2 (build 2540/release)
Writing library                  : VirtualDubMod build 2540/release

Video
ID                               : 0
Format                           : MPEG-4 Visual
Format profile                   : Advanced Simple@L5
Format settings, BVOP            : Yes
Format settings, QPel            : No
Format settings, GMC             : No warppoints
Format settings, Matrix          : Default (H.263)
Codec ID                         : XVID
Codec ID/Hint                    : XviD
Duration                         : 1h 26mn
Bit rate                         : 1 000 Kbps
Width                            : 592 pixels
Height                           : 320 pixels
Display aspect ratio             : 1.850
Frame rate                       : 29.970 fps
Resolution                       : 8 bits
Colorimetry                      : 4:2:0
Scan type                        : Progressive
Bits/(Pixel*Frame)               : 0.176
Stream size                      : 617 MiB (88%)
Writing library                  : XviD 1.1.2 (UTC 2006-11-01)

Audio
ID                               : 1
Format                           : MPEG Audio
Format version                   : Version 1
Format profile                   : Layer 3
Codec ID                         : 55
Codec ID/Hint                    : MP3
Duration                         : 1h 26mn
Bit rate mode                    : Variable
Bit rate                         : 124 Kbps
Minimum bit rate                 : 64.0 Kbps
Channel(s)                       : 2 channels
Sampling rate                    : 48.0 KHz
Stream size                      : 76.2 MiB (11%)
Alignment                        : Aligned on interleaves
Interleave, duration             : 24 ms (0.72 video frame)
Interleave, preload duration     : 379 ms
Writing library                  : LAME3.95 
Encoding settings                : -m s -V 6 -q 3 -lowpass 16 --vbr-old -b 64